<svg xmlns="http://www.w3.org/2000/svg" viewBox="0 0 91.07 99.36"><defs><style>.cls-1{fill:#2b2b2a;}</style></defs><title>cartoonAsset 13</title><g id="Layer_2" data-name="Layer 2"><g id="Layer_1-2" data-name="Layer 1"><path class="cls-1" d="M55.1,23.48c.47.08.92.19,1.36.31A181.23,181.23,0,0,1,64.09,0,66.87,66.87,0,0,1,51.31,21.17,12.47,12.47,0,0,1,55.1,23.48Z"/><path class="cls-1" d="M35.29,22.71h0C35.05,12,36.79,4.1,34.39,2.57A96.76,96.76,0,0,1,31,23.24,18.1,18.1,0,0,1,35.29,22.71Z"/><path class="cls-1" d="M21.76,75.64A16.23,16.23,0,0,1,18,74.34a156.61,156.61,0,0,1,.65,25S19.69,86.35,21.76,75.64Z"/><path class="cls-1" d="M44.88,75.87a15.33,15.33,0,0,1-1.8-1.24l-.63,0c1.47,7.82,2.22,14.15,2.22,14.15A67.89,67.89,0,0,1,44.88,75.87Z"/><path class="cls-1" d="M16.91,51.57A9.18,9.18,0,0,1,18,54.5,9.61,9.61,0,0,1,18,56q-.61,6.65-6.31,8.61l-4.05.82-3.77.76q-2.06.43-3.87.85.77-5.31,1.95-11,.73-3.58,2.42-9.19.34-1.11,1-3c-.44.2-.82.36-1.14.49L2.61,37.79a40.28,40.28,0,0,1,7.07-1.24,14,14,0,0,1,1.56,0q2.39.05,2.75.11a10.05,10.05,0,0,1,2.86.86,6,6,0,0,1,3.76,5.57,9.57,9.57,0,0,1,0,1.5A10.28,10.28,0,0,1,16.91,51.57Zm-3.86,4.14a2.44,2.44,0,0,0-1.86-2.19,4.25,4.25,0,0,0-1.65-.12l-.42,0-.28,0-.24,0a2.44,2.44,0,0,0-.72.26l-.24,1.22q-.4,1.2-1,3.12-.09.36-.49,2.12L7.58,60a9.18,9.18,0,0,0,3.54-1A3.3,3.3,0,0,0,13.05,55.71Zm2.58-11.44a2.46,2.46,0,0,0-1.87-2.19A4.12,4.12,0,0,0,12.12,42l-.42,0a11.3,11.3,0,0,0-2.65.8l1.2.64a30.11,30.11,0,0,0-1,3.13q0,.14-.5,2.14l1.38-.15a9,9,0,0,0,3.57-1A3.3,3.3,0,0,0,15.63,44.27Z"/><path class="cls-1" d="M31.7,55.36,26.84,56a38.84,38.84,0,0,0-2.23,7.71l-6,2.21a57.66,57.66,0,0,1,1.94-6.52l1.22-3.69a97.4,97.4,0,0,1,5.65-12.95,78.6,78.6,0,0,1,4.3-7.6q1.39-.15,4.12-.51l.31,2.47q.34,2.8.51,5.4a67.91,67.91,0,0,1,0,9.55q-.16.77-.53,6.39-.15,2.33-.35,3.8l-6,2.2Q30.35,61.91,31.7,55.36Zm.71-14.1q-.74,1.45-3,7l-1.24,3,3.25-.3.78.65q.76-2.51.32-9Q32.46,41.62,32.4,41.27Z"/><path class="cls-1" d="M42.87,35l5.78-2a157,157,0,0,1,3.57,15.6,7.08,7.08,0,0,0,.62-1.85l.51-1.92q.82-3,3.86-11l.65-.12q1.8-.37,4.14-.71-1.83,4.86-3.76,11.54-.69,2.4-1.91,9.15-.33,1.81-1.26,7.26l-6,2.2a8.83,8.83,0,0,0,0-1.27,94.92,94.92,0,0,0-1.6-11q-.5-2.69-.74-2.68L45,54.36a31.48,31.48,0,0,0-1.2,7.93l-6,2.22q.74-4.8,1.74-9.78Q40.39,51,42,45.55q.71-2.39,2-6a2.22,2.22,0,0,0,.06-.57,7.9,7.9,0,0,0-.55-2Q42.95,35.24,42.87,35Z"/><path class="cls-1" d="M72.68,61.53a10.35,10.35,0,0,1-3.57.86,7.45,7.45,0,0,1-6.86-3.28,16.58,16.58,0,0,1-2.79-8.81q-.08-1.18-.06-2.53a18.34,18.34,0,0,1,3.35-10.44q3.28-4.59,7.88-4.9,7-.47,10.25,5.37l-5.81,4.13Q73.64,38.81,70.7,39a6.21,6.21,0,0,0-4.84,2.8,11.92,11.92,0,0,0-1.92,6.38,12.45,12.45,0,0,0,0,1.52,9,9,0,0,0,1.68,4.89,4.21,4.21,0,0,0,3.79,1.95,5.28,5.28,0,0,0,4.06-2.61l1.08-5.65,5.59-1.18a53.7,53.7,0,0,0-1,6.4q-.48,2.86-.72,4.65L78,61q-2,.51-5.32,1.18Q72.67,61.89,72.68,61.53Z"/><path class="cls-1" d="M68.49,63.84A8.81,8.81,0,0,1,61.11,60a17.33,17.33,0,0,1-3-8.48c-.14.74-.28,1.52-.44,2.37q-.33,1.81-1.26,7.24l-.14.81-8.83,3.25.2-2.23a7.18,7.18,0,0,0,0-1,79.39,79.39,0,0,0-1-7.95l-.22.8a30.26,30.26,0,0,0-1.15,7.58v1l-9.13,3.4.37-2.38c0-.27.09-.55.14-.82L28,66.64l.46-2.45c.27-1.44.74-3.8,1.43-7.17l-2.07.26A40.62,40.62,0,0,0,26,64l-.15.78-8.93,3.32.34-2.36a49.34,49.34,0,0,1,2-6.77l1.22-3.68A99.19,99.19,0,0,1,26.2,42.11a80.33,80.33,0,0,1,4.38-7.73l.37-.56.67-.07q1.38-.15,4.09-.51L37.11,33l.49,3.89c.23,1.89.4,3.73.52,5.48a69.56,69.56,0,0,1,0,9.75v.09l0,.09c0,.18-.15,1-.42,4.88.17-.93.34-1.85.53-2.78.53-2.56,1.35-5.69,2.46-9.32.47-1.58,1.13-3.54,2-6a.73.73,0,0,0,0-.11,6.7,6.7,0,0,0-.46-1.56c-.44-1.23-.69-1.93-.75-2.11l-.39-1.3,8.48-2.95L50,32.58c1,3.47,1.8,6.83,2.5,10.06.7-2.19,1.83-5.33,3.37-9.39l.28-.74,1.43-.27c1.21-.25,2.63-.5,4.2-.72l2.37-.34-.84,2.24c-.21.57-.43,1.16-.65,1.77a12.09,12.09,0,0,1,5-3.53,12.58,12.58,0,0,0-7-2.42l-.08-.08a11.35,11.35,0,0,0-6.81-3,2.64,2.64,0,0,0-.23-.25c-2.89-3-9.13-4-13.94-2.2a9.47,9.47,0,0,0-3.16,1.89,15,15,0,0,0-6.31.87,8,8,0,0,0-4.35,3.38,18,18,0,0,0-4.84-.64c-5.76,0-10.58,2.56-11.76,6l.42,0c.28,0,.59,0,.92,0l.81,0c2.15,0,2.66.09,2.89.12a11.43,11.43,0,0,1,3.23,1A7.39,7.39,0,0,1,22,43a10.79,10.79,0,0,1,0,1.73,11.52,11.52,0,0,1-3.33,7.16,7.52,7.52,0,0,1,.81,2.52,11,11,0,0,1,0,1.75c-.35,3.8-1.85,6.62-4.45,8.41l.56,0a4.46,4.46,0,0,0-.39,1.82c0,3.76,4.83,6.81,10.79,6.81a14,14,0,0,0,8.21-2.39,23.38,23.38,0,0,0,6.95,1,26.15,26.15,0,0,0,3-.17,13.73,13.73,0,0,0,9.62,3.73c7,0,12.72-4.82,12.72-10.77V64.5a17,17,0,0,0,2.29-.67Z"/><path class="cls-1" d="M81.73,54.86l5.76-1.29q-.31,1.75-.87,5.88l-.17.05q-2.53.77-5.79,2.09Q81.14,58,81.73,54.86Zm9.34-24.6q-.21,4-1.91,13.94l-1.15,6-5.6,1L84.65,38.9q.44-3.44,1.11-7.46Q87.73,30.94,91.07,30.26Z"/></g></g></svg>