<svg xmlns="http://www.w3.org/2000/svg" viewBox="0 0 22.9 24.92"><defs><style>.cls-1{fill:#2b2b2a;}</style></defs><title>dierAsset 20</title><g id="Layer_2" data-name="Layer 2"><g id="Layer_1-2" data-name="Layer 1"><path class="cls-1" d="M12.5,14.67l-.46-.1a3.32,3.32,0,0,1-2.53-2A5.72,5.72,0,0,0,8.2,10.7a4.06,4.06,0,0,0-3-1.25A4.38,4.38,0,0,0,1,13.82a4.29,4.29,0,0,0,.22,1.35,3.25,3.25,0,0,1-.44,2.88A4.32,4.32,0,0,0,0,21.16,4.41,4.41,0,0,0,3.7,24.87a4.35,4.35,0,0,0,3.56-1,3.55,3.55,0,0,1,3.16-.66,4.28,4.28,0,0,0,.93.1,4.38,4.38,0,0,0,1.14-8.61Z"/><path class="cls-1" d="M11.94,0s.94,7.15-2.59,8.31S4.78,4.54,5.75,3.48s3.62-2.88,4-.21S11.94,0,11.94,0Z"/><path class="cls-1" d="M19.1,1.63S20,9,16.71,10.23s-4.23-3.91-3.33-5,3.34-3,3.71-.22S19.1,1.63,19.1,1.63Z"/><path class="cls-1" d="M22.9,10s-.22,6.76-3.56,7.32-3.56-4.16-2.52-5,3.69-2.15,3.64.38S22.9,10,22.9,10Z"/></g></g></svg>