<svg xmlns="http://www.w3.org/2000/svg" viewBox="0 0 25.61 27.23"><defs><style>.cls-1{fill:#2b2b2a;}</style></defs><title>schoolAsset 19</title><g id="Layer_2" data-name="Layer 2"><g id="Layer_1-2" data-name="Layer 1"><polygon class="cls-1" points="20.96 27.23 21.85 26.77 19.82 22.82 18.7 22.82 20.96 27.23"/><path class="cls-1" d="M23.73,0H1.88A1.88,1.88,0,0,0,0,1.88v16a1.88,1.88,0,0,0,1.88,1.88H3.59L.9,22a.44.44,0,0,0,.29.78H18.7l-4.6-9,.89-.46,4.84,9.43h4.61a.44.44,0,0,0,.29-.78L22,19.71h1.71a1.88,1.88,0,0,0,1.88-1.88v-16A1.88,1.88,0,0,0,23.73,0ZM20.82,12.1a4.51,4.51,0,0,1-2.71,1.37,1.52,1.52,0,0,1-1.4-.77,2.9,2.9,0,0,1-.24-2A5,5,0,0,1,17,9.06a2.92,2.92,0,0,1-.87.14,2.68,2.68,0,0,1-.9-.15,2.49,2.49,0,0,1,0,.59,4.77,4.77,0,0,1-1.31,2.56,3.1,3.1,0,0,1-2.23,1.09,1.48,1.48,0,0,1-1.29-.61,2,2,0,0,1-.27-1.57A10.2,10.2,0,0,1,10.44,10,14.73,14.73,0,0,1,9,11.56a3.89,3.89,0,0,1-2.24,1.29q-1.06,0-.69-2.11.08-.44.24-1.18a12.28,12.28,0,0,1-2,2.64,3.05,3.05,0,0,1-1.8,1.09.76.76,0,0,1-.74-.55,2.79,2.79,0,0,1-.05-1.47A6.69,6.69,0,0,1,3.19,8a3.25,3.25,0,0,1,2.4-1.4,2.6,2.6,0,0,1,1.51.55q.22-.55,1.14-.55h.19A5.34,5.34,0,0,0,7.76,8l-.17.5a12.68,12.68,0,0,0-.48,1.95q-.22,1.28.28,1.28T9,10.71a18.19,18.19,0,0,0,1.89-2.17l1.5-4.4a2.22,2.22,0,0,1-.43.05q-1.05,0-.82-1.31a1.09,1.09,0,0,0,1,.37,5.58,5.58,0,0,0,1.7-.38L11.45,9.81a8.62,8.62,0,0,0-.33,1.24,1.78,1.78,0,0,0,.12,1.18.91.91,0,0,0,.89.43,2,2,0,0,0,1.32-.83,4.3,4.3,0,0,0,.89-2,4,4,0,0,0,0-1.14,2.36,2.36,0,0,1-.9-.64.94.94,0,0,1-.26-.77,1.64,1.64,0,0,1,.23-.52,2,2,0,0,1,1.78,1.37,2.34,2.34,0,0,0,1.28.36,2.7,2.7,0,0,0,1.2-.32c.09-.1.17-.21.27-.31a3.69,3.69,0,0,1,2.6-1.21,1.34,1.34,0,0,1,.87.25.64.64,0,0,1,.24.65q-.11.65-1.09,1a.89.89,0,0,0,.1-.27q.17-.95-.68-.95a2.11,2.11,0,0,0-1.52,1,4.63,4.63,0,0,0-1,2.14,2.44,2.44,0,0,0,.13,1.52,1.11,1.11,0,0,0,.92.61q1.82.06,5.07-4.47l.36.29A19.23,19.23,0,0,1,20.82,12.1Z"/><path class="cls-1" d="M3.72,8.43a6.46,6.46,0,0,0-1,2.55q-.21,1.18.44,1.18T6.51,8.49l.26-.33a2.55,2.55,0,0,0-1.58-.8Q4.45,7.36,3.72,8.43Z"/></g></g></svg>