<svg xmlns="http://www.w3.org/2000/svg" viewBox="0 0 22.02 28.04"><defs><style>.cls-1{fill:#2b2b2a;}</style></defs><title>sci-fiAsset 16</title><g id="Layer_2" data-name="Layer 2"><g id="Layer_1-2" data-name="Layer 1"><path class="cls-1" d="M16.82,4.69c1.54-1.81,6.51-4,2.54-4.61-3.4-.57-4.1,2.18-4.24,3.75a10.95,10.95,0,0,0-8.23,0C6.76,2.26,6.05-.49,2.66.08c-4,.66,1,2.81,2.54,4.61A11,11,0,0,0,0,14c0,6.08,4.93,14,11,14s11-7.93,11-14A11,11,0,0,0,16.82,4.69ZM9.87,20.93c-.67.79-3.06-.13-5.32-2.06S1,14.73,1.68,13.94,4.74,14.08,7,16,10.55,20.14,9.87,20.93Zm7.59-2.06c-2.26,1.93-4.64,2.85-5.32,2.06s.61-3,2.87-4.93,4.64-2.85,5.32-2.06S19.73,16.94,17.46,18.87Z"/></g></g></svg>