<svg xmlns="http://www.w3.org/2000/svg" viewBox="0 0 22.58 22.58"><defs><style>.cls-1{fill:#2b2b2a;}</style></defs><title>sportAsset 17</title><g id="Layer_2" data-name="Layer 2"><g id="Layer_1-2" data-name="Layer 1"><path class="cls-1" d="M12.53,15.59q.67-.16,1.31-.36C13.59,13,14.25,11,15,8.76a27.63,27.63,0,0,0,1.66-7.41,11.18,11.18,0,0,0-8-1A87.74,87.74,0,0,0,12.53,15.59Z"/><path class="cls-1" d="M13.08,17a26.34,26.34,0,0,0,2.52,4.77q.51-.21,1-.47a14.17,14.17,0,0,1-2.45-4.6Q13.61,16.82,13.08,17Z"/><path class="cls-1" d="M16.42,9.24a14.39,14.39,0,0,0-1.12,5.44,15.92,15.92,0,0,0,7-5.91,11.28,11.28,0,0,0-4.2-6.48A30.49,30.49,0,0,1,16.42,9.24Z"/><path class="cls-1" d="M4,10a19.34,19.34,0,0,1,5.12,6.05h.21c.58,0,1.14-.12,1.69-.2A87.19,87.19,0,0,1,7.16.79,11.31,11.31,0,0,0,1,6.67,11,11,0,0,0,4,10Z"/><path class="cls-1" d="M15.55,16.15a12.58,12.58,0,0,0,2.31,4.31,11.27,11.27,0,0,0,4.72-9.17c0-.12,0-.24,0-.36A17.16,17.16,0,0,1,15.55,16.15Z"/><path class="cls-1" d="M11.59,17.27q-.94.16-1.85.24a14.51,14.51,0,0,1,.73,5c.28,0,.55,0,.83,0a11.27,11.27,0,0,0,2.84-.37A29.64,29.64,0,0,1,11.59,17.27Z"/><path class="cls-1" d="M8.18,17.59H7.62a28.78,28.78,0,0,1-6.1-.68A11.3,11.3,0,0,0,9,22.34,12.75,12.75,0,0,0,8.18,17.59Z"/><path class="cls-1" d="M3,11.17A19.45,19.45,0,0,1,.36,8.52a11,11,0,0,0,.35,6.67,27.3,27.3,0,0,0,6.79.95A19.29,19.29,0,0,0,3,11.17Z"/></g></g></svg>